<mxfile host="app.diagrams.net" modified="2021-01-08T10:04:35.664Z" agent="5.0 (Macintosh; Intel Mac OS X 10_15_7) AppleWebKit/537.36 (KHTML, like Gecko) Chrome/87.0.4280.141 Safari/537.36" etag="hsWi4_9uGb4Gc4JQv3A0" version="14.1.8" type="github">
  <diagram id="m-hozwIraGs_RCXANB_e" name="Page-1">
    <mxGraphModel dx="1130" dy="611" grid="1" gridSize="10" guides="1" tooltips="1" connect="1" arrows="1" fold="1" page="1" pageScale="1" pageWidth="827" pageHeight="1169" math="0" shadow="0">
      <root>
        <mxCell id="0" />
        <mxCell id="1" parent="0" />
        <mxCell id="sWCAbqIsSpMauEiSs6HI-1" value="module" style="ellipse;whiteSpace=wrap;html=1;" vertex="1" parent="1">
          <mxGeometry x="20" y="30" width="80" height="40" as="geometry" />
        </mxCell>
        <mxCell id="sWCAbqIsSpMauEiSs6HI-2" value="block" style="rounded=0;whiteSpace=wrap;html=1;" vertex="1" parent="1">
          <mxGeometry x="120" y="30" width="80" height="40" as="geometry" />
        </mxCell>
        <mxCell id="sWCAbqIsSpMauEiSs6HI-4" value="a.js" style="ellipse;whiteSpace=wrap;html=1;" vertex="1" parent="1">
          <mxGeometry x="374" y="80" width="80" height="40" as="geometry" />
        </mxCell>
        <mxCell id="sWCAbqIsSpMauEiSs6HI-5" value="b.js" style="ellipse;whiteSpace=wrap;html=1;" vertex="1" parent="1">
          <mxGeometry x="294" y="160" width="80" height="40" as="geometry" />
        </mxCell>
        <mxCell id="sWCAbqIsSpMauEiSs6HI-11" style="edgeStyle=orthogonalEdgeStyle;rounded=0;orthogonalLoop=1;jettySize=auto;html=1;entryX=0.5;entryY=0;entryDx=0;entryDy=0;" edge="1" parent="1" source="sWCAbqIsSpMauEiSs6HI-6" target="sWCAbqIsSpMauEiSs6HI-7">
          <mxGeometry relative="1" as="geometry" />
        </mxCell>
        <mxCell id="sWCAbqIsSpMauEiSs6HI-6" value="c.js" style="rounded=0;whiteSpace=wrap;html=1;" vertex="1" parent="1">
          <mxGeometry x="454" y="160" width="80" height="40" as="geometry" />
        </mxCell>
        <mxCell id="sWCAbqIsSpMauEiSs6HI-7" value="c.js" style="ellipse;whiteSpace=wrap;html=1;" vertex="1" parent="1">
          <mxGeometry x="454" y="250" width="80" height="40" as="geometry" />
        </mxCell>
        <mxCell id="sWCAbqIsSpMauEiSs6HI-9" value="" style="endArrow=classic;html=1;exitX=0.5;exitY=1;exitDx=0;exitDy=0;entryX=0.5;entryY=0;entryDx=0;entryDy=0;" edge="1" parent="1" source="sWCAbqIsSpMauEiSs6HI-4" target="sWCAbqIsSpMauEiSs6HI-5">
          <mxGeometry width="50" height="50" relative="1" as="geometry">
            <mxPoint x="400" y="270" as="sourcePoint" />
            <mxPoint x="450" y="220" as="targetPoint" />
          </mxGeometry>
        </mxCell>
        <mxCell id="sWCAbqIsSpMauEiSs6HI-10" value="" style="endArrow=classic;html=1;exitX=0.5;exitY=1;exitDx=0;exitDy=0;entryX=0.5;entryY=0;entryDx=0;entryDy=0;" edge="1" parent="1" source="sWCAbqIsSpMauEiSs6HI-4" target="sWCAbqIsSpMauEiSs6HI-6">
          <mxGeometry width="50" height="50" relative="1" as="geometry">
            <mxPoint x="424" y="130" as="sourcePoint" />
            <mxPoint x="320" y="170" as="targetPoint" />
          </mxGeometry>
        </mxCell>
        <mxCell id="sWCAbqIsSpMauEiSs6HI-12" value="d.js" style="ellipse;whiteSpace=wrap;html=1;" vertex="1" parent="1">
          <mxGeometry x="214" y="250" width="80" height="40" as="geometry" />
        </mxCell>
        <mxCell id="sWCAbqIsSpMauEiSs6HI-14" value="" style="endArrow=classic;html=1;entryX=0.5;entryY=0;entryDx=0;entryDy=0;exitX=0.5;exitY=1;exitDx=0;exitDy=0;" edge="1" parent="1" source="sWCAbqIsSpMauEiSs6HI-5" target="sWCAbqIsSpMauEiSs6HI-12">
          <mxGeometry width="50" height="50" relative="1" as="geometry">
            <mxPoint x="330" y="220" as="sourcePoint" />
            <mxPoint x="250" y="240" as="targetPoint" />
          </mxGeometry>
        </mxCell>
        <mxCell id="sWCAbqIsSpMauEiSs6HI-15" value="d.js" style="ellipse;whiteSpace=wrap;html=1;" vertex="1" parent="1">
          <mxGeometry x="374" y="330" width="80" height="40" as="geometry" />
        </mxCell>
        <mxCell id="sWCAbqIsSpMauEiSs6HI-20" style="edgeStyle=orthogonalEdgeStyle;rounded=0;orthogonalLoop=1;jettySize=auto;html=1;entryX=0.5;entryY=0;entryDx=0;entryDy=0;" edge="1" parent="1" source="sWCAbqIsSpMauEiSs6HI-16" target="sWCAbqIsSpMauEiSs6HI-17">
          <mxGeometry relative="1" as="geometry" />
        </mxCell>
        <mxCell id="sWCAbqIsSpMauEiSs6HI-16" value="b.js" style="rounded=0;whiteSpace=wrap;html=1;" vertex="1" parent="1">
          <mxGeometry x="540" y="330" width="80" height="40" as="geometry" />
        </mxCell>
        <mxCell id="sWCAbqIsSpMauEiSs6HI-17" value="b.js" style="ellipse;whiteSpace=wrap;html=1;" vertex="1" parent="1">
          <mxGeometry x="540" y="420" width="80" height="40" as="geometry" />
        </mxCell>
        <mxCell id="sWCAbqIsSpMauEiSs6HI-18" value="" style="endArrow=classic;html=1;entryX=0.5;entryY=0;entryDx=0;entryDy=0;exitX=0.5;exitY=1;exitDx=0;exitDy=0;" edge="1" parent="1" source="sWCAbqIsSpMauEiSs6HI-7" target="sWCAbqIsSpMauEiSs6HI-15">
          <mxGeometry width="50" height="50" relative="1" as="geometry">
            <mxPoint x="344" y="210" as="sourcePoint" />
            <mxPoint x="264" y="260" as="targetPoint" />
          </mxGeometry>
        </mxCell>
        <mxCell id="sWCAbqIsSpMauEiSs6HI-19" value="" style="endArrow=classic;html=1;entryX=0.5;entryY=0;entryDx=0;entryDy=0;exitX=0.5;exitY=1;exitDx=0;exitDy=0;" edge="1" parent="1" source="sWCAbqIsSpMauEiSs6HI-7" target="sWCAbqIsSpMauEiSs6HI-16">
          <mxGeometry width="50" height="50" relative="1" as="geometry">
            <mxPoint x="504" y="300" as="sourcePoint" />
            <mxPoint x="424" y="340" as="targetPoint" />
          </mxGeometry>
        </mxCell>
      </root>
    </mxGraphModel>
  </diagram>
</mxfile>
